<svg width="32" height="32" viewBox="0 0 32 32" fill="none" xmlns="http://www.w3.org/2000/svg">
<g clip-path="url(#clip0_284_2218)">
<path d="M24.969 3.73121V2.57552C24.969 1.83914 24.3719 1.24219 23.6357 1.24219H2.65756C1.92117 1.24219 1.32422 1.83914 1.32422 2.57552V23.5535C1.32422 24.2899 1.92117 24.8868 2.65756 24.8868H3.81324" stroke="#666666" stroke-width="2" stroke-linecap="round" stroke-linejoin="round"/>
<path d="M30.6774 29.4242C30.6774 30.1605 30.0805 30.7575 29.3441 30.7575H9.70345C8.96708 30.7575 8.37012 30.1605 8.37012 29.4242V9.78353C8.37012 9.04716 8.96708 8.4502 9.70345 8.4502H29.3441C30.0805 8.4502 30.6774 9.04716 30.6774 9.78353V29.4242Z" stroke="#666666" stroke-width="2" stroke-linecap="round" stroke-linejoin="round"/>
<path d="M19.5234 25.1654V14.043" stroke="#666666" stroke-width="2" stroke-linecap="round" stroke-linejoin="round"/>
<path d="M13.9639 19.6045H25.0861" stroke="#666666" stroke-width="2" stroke-linecap="round" stroke-linejoin="round"/>
</g>
<defs>
<clipPath id="clip0_284_2218">
<rect width="32" height="32" fill="white"/>
</clipPath>
</defs>
</svg>
