<svg width="32" height="32" viewBox="0 0 32 32" fill="none" xmlns="http://www.w3.org/2000/svg">
<path d="M25 28.5C26.5913 28.5 28.1174 27.8679 29.2426 26.7426C30.3679 25.6174 31 24.0913 31 22.5C31 20.9087 30.3679 19.3826 29.2426 18.2574C28.1174 17.1321 26.5913 16.5 25 16.5C24.4696 16.5 23.9609 16.7107 23.5858 17.0858C23.2107 17.4609 23 17.9696 23 18.5V26.5C23 27.0304 23.2107 27.5391 23.5858 27.9142C23.9609 28.2893 24.4696 28.5 25 28.5Z" stroke="white" stroke-width="2" stroke-linecap="round" stroke-linejoin="round"/>
<path d="M7 28.5C5.4087 28.5 3.88258 27.8679 2.75736 26.7426C1.63214 25.6174 1 24.0913 1 22.5C1 20.9087 1.63214 19.3826 2.75736 18.2574C3.88258 17.1321 5.4087 16.5 7 16.5C7.53043 16.5 8.03914 16.7107 8.41421 17.0858C8.78929 17.4609 9 17.9696 9 18.5V26.5C9 27.0304 8.78929 27.5391 8.41421 27.9142C8.03914 28.2893 7.53043 28.5 7 28.5Z" stroke="white" stroke-width="2" stroke-linecap="round" stroke-linejoin="round"/>
<path d="M5 16.8413V14.5C5.00844 11.5852 6.17008 8.79222 8.23115 6.73115C10.2922 4.67008 13.0852 3.50844 16 3.5C18.9148 3.50844 21.7078 4.67008 23.7688 6.73115C25.8299 8.79222 26.9916 11.5852 27 14.5V16.8413" stroke="white" stroke-width="2" stroke-linecap="round" stroke-linejoin="round"/>
<path d="M16 28.166V30.2493" stroke="white" stroke-width="1.2" stroke-linecap="round" stroke-linejoin="round"/>
<path d="M15.7222 17.75H16.2778C16.2778 17.75 18.5 17.75 18.5 19.9722V24C18.5 24 18.5 26.2222 16.2778 26.2222H15.7222C15.7222 26.2222 13.5 26.2222 13.5 24V19.9722C13.5 19.9722 13.5 17.75 15.7222 17.75Z" stroke="white" stroke-width="1.2" stroke-linecap="round" stroke-linejoin="round"/>
<path d="M11.5557 22.75V24C11.5557 25.1051 11.9947 26.1649 12.7761 26.9463C13.5575 27.7277 14.6173 28.1667 15.7223 28.1667H16.2779C17.383 28.1667 18.4428 27.7277 19.2242 26.9463C20.0056 26.1649 20.4446 25.1051 20.4446 24V22.75" stroke="white" stroke-width="1.2" stroke-linecap="round" stroke-linejoin="round"/>
</svg>
