<svg width="32" height="32" viewBox="0 0 32 32" fill="none" xmlns="http://www.w3.org/2000/svg">
<path d="M25 28.5C26.5913 28.5 28.1174 27.8679 29.2426 26.7426C30.3679 25.6174 31 24.0913 31 22.5C31 20.9087 30.3679 19.3826 29.2426 18.2574C28.1174 17.1321 26.5913 16.5 25 16.5C24.4696 16.5 23.9609 16.7107 23.5858 17.0858C23.2107 17.4609 23 17.9696 23 18.5V26.5C23 27.0304 23.2107 27.5391 23.5858 27.9142C23.9609 28.2893 24.4696 28.5 25 28.5Z" stroke="#666666" stroke-width="2" stroke-linecap="round" stroke-linejoin="round"/>
<path d="M7 28.5C5.4087 28.5 3.88258 27.8679 2.75736 26.7426C1.63214 25.6174 1 24.0913 1 22.5C1 20.9087 1.63214 19.3826 2.75736 18.2574C3.88258 17.1321 5.4087 16.5 7 16.5C7.53043 16.5 8.03914 16.7107 8.41421 17.0858C8.78929 17.4609 9 17.9696 9 18.5V26.5C9 27.0304 8.78929 27.5391 8.41421 27.9142C8.03914 28.2893 7.53043 28.5 7 28.5Z" stroke="#666666" stroke-width="2" stroke-linecap="round" stroke-linejoin="round"/>
<path d="M5 16.8413V14.5C5.00844 11.5852 6.17008 8.79222 8.23115 6.73115C10.2922 4.67008 13.0852 3.50844 16 3.5C18.9148 3.50844 21.7078 4.67008 23.7688 6.73115C25.8299 8.79222 26.9916 11.5852 27 14.5V16.8413" stroke="#666666" stroke-width="2" stroke-linecap="round" stroke-linejoin="round"/>
<g clip-path="url(#clip0_284_2244)">
<path d="M21 30.25H12.25C11.9185 30.25 11.6005 30.1183 11.3661 29.8839C11.1317 29.6495 11 29.3315 11 29" stroke="#666666" stroke-width="1.2" stroke-linecap="round" stroke-linejoin="round"/>
<path d="M12.6667 17.75C12.2246 17.75 11.8007 17.9256 11.4882 18.2382C11.1756 18.5507 11 18.9746 11 19.4167V29C11 28.6685 11.1317 28.3505 11.3661 28.1161C11.6005 27.8817 11.9185 27.75 12.25 27.75H20.5833C20.6938 27.75 20.7998 27.7061 20.878 27.628C20.9561 27.5498 21 27.4438 21 27.3333V18.1667C21 18.0562 20.9561 17.9502 20.878 17.872C20.7998 17.7939 20.6938 17.75 20.5833 17.75H12.6667Z" stroke="#666666" stroke-width="1.2" stroke-linecap="round" stroke-linejoin="round"/>
<path d="M20.166 30.25V27.75" stroke="#666666" stroke-width="1.2" stroke-linecap="round" stroke-linejoin="round"/>
</g>
<defs>
<clipPath id="clip0_284_2244">
<rect width="13.3333" height="13.3333" fill="white" transform="translate(9.33301 17.333)"/>
</clipPath>
</defs>
</svg>
