<svg width="32" height="32" viewBox="0 0 32 32" fill="none" xmlns="http://www.w3.org/2000/svg">
<g clip-path="url(#clip0_284_2252)">
<path d="M8 9C8 11.1217 8.84286 13.1566 10.3431 14.6569C11.8434 16.1571 13.8783 17 16 17C18.1217 17 20.1566 16.1571 21.6569 14.6569C23.1571 13.1566 24 11.1217 24 9C24 6.87827 23.1571 4.84344 21.6569 3.34315C20.1566 1.84285 18.1217 1 16 1C13.8783 1 11.8434 1.84285 10.3431 3.34315C8.84286 4.84344 8 6.87827 8 9Z" stroke="#666666" stroke-width="2" stroke-linecap="round" stroke-linejoin="round"/>
<path d="M8 9H24" stroke="#666666" stroke-width="2" stroke-linecap="round" stroke-linejoin="round"/>
<path d="M13 9C13 11.1217 13.3161 13.1566 13.8787 14.6569C14.4413 16.1571 15.2044 17 16 17C16.7956 17 17.5587 16.1571 18.1213 14.6569C18.6839 13.1566 19 11.1217 19 9C19 6.87827 18.6839 4.84344 18.1213 3.34315C17.5587 1.84285 16.7956 1 16 1C15.2044 1 14.4413 1.84285 13.8787 3.34315C13.3161 4.84344 13 6.87827 13 9Z" stroke="#666666" stroke-width="1.5" stroke-linecap="round" stroke-linejoin="round"/>
<path d="M3.13184 22.5C3.13184 22.9596 3.22237 23.4148 3.39826 23.8394C3.57415 24.264 3.83196 24.6499 4.15696 24.9749C4.48197 25.2999 4.8678 25.5577 5.29244 25.7336C5.71708 25.9095 6.17221 26 6.63184 26C7.09146 26 7.54659 25.9095 7.97123 25.7336C8.39587 25.5577 8.7817 25.2999 9.10671 24.9749C9.43172 24.6499 9.68952 24.264 9.86541 23.8394C10.0413 23.4148 10.1318 22.9596 10.1318 22.5C10.1318 22.0404 10.0413 21.5852 9.86541 21.1606C9.68952 20.736 9.43172 20.3501 9.10671 20.0251C8.7817 19.7001 8.39587 19.4423 7.97123 19.2664C7.54659 19.0905 7.09146 19 6.63184 19C6.17221 19 5.71708 19.0905 5.29244 19.2664C4.8678 19.4423 4.48197 19.7001 4.15696 20.0251C3.83196 20.3501 3.57415 20.736 3.39826 21.1606C3.22237 21.5852 3.13184 22.0404 3.13184 22.5Z" stroke="#666666" stroke-width="1.5" stroke-linecap="round" stroke-linejoin="round"/>
<path d="M12.2663 31.0001C11.8587 29.8312 11.0975 28.818 10.0882 28.1011C9.07893 27.3842 7.87162 26.999 6.63364 26.999C5.39567 26.999 4.18836 27.3842 3.17909 28.1011C2.16983 28.818 1.40861 29.8312 1.00098 31.0001" stroke="#666666" stroke-width="1.5" stroke-linecap="round" stroke-linejoin="round"/>
<path d="M21.8682 22.5C21.8682 23.4283 22.2369 24.3185 22.8933 24.9749C23.5497 25.6313 24.4399 26 25.3682 26C26.2964 26 27.1867 25.6313 27.843 24.9749C28.4994 24.3185 28.8682 23.4283 28.8682 22.5C28.8682 21.5717 28.4994 20.6815 27.843 20.0251C27.1867 19.3687 26.2964 19 25.3682 19C24.4399 19 23.5497 19.3687 22.8933 20.0251C22.2369 20.6815 21.8682 21.5717 21.8682 22.5Z" stroke="#666666" stroke-width="1.5" stroke-linecap="round" stroke-linejoin="round"/>
<path d="M30.9997 31.0001C30.5921 29.8312 29.8309 28.818 28.8216 28.1011C27.8123 27.3842 26.605 26.999 25.367 26.999C24.1291 26.999 22.9218 27.3842 21.9125 28.1011C20.9032 28.818 20.142 29.8312 19.7344 31.0001" stroke="#666666" stroke-width="1.5" stroke-linecap="round" stroke-linejoin="round"/>
</g>
<defs>
<clipPath id="clip0_284_2252">
<rect width="32" height="32" fill="white"/>
</clipPath>
</defs>
</svg>
