<svg width="32" height="32" viewBox="0 0 32 32" fill="none" xmlns="http://www.w3.org/2000/svg">
<g clip-path="url(#clip0_284_2224)">
<path d="M11 25H3.2627" stroke="#666666" stroke-width="2" stroke-linecap="round" stroke-linejoin="round"/>
<path d="M27 11V7C27 6.46957 26.7893 5.96086 26.4142 5.58579C26.0391 5.21071 25.5304 5 25 5H11V3C11 2.46957 10.7893 1.96086 10.4142 1.58579C10.0391 1.21071 9.53043 1 9 1H3C2.46957 1 1.96086 1.21071 1.58579 1.58579C1.21071 1.96086 1 2.46957 1 3V22.7333C1.00753 23.2779 1.2109 23.8016 1.57291 24.2086C1.93492 24.6155 2.43136 24.8785 2.97138 24.9494C3.5114 25.0203 4.0589 24.8944 4.51369 24.5947C4.96848 24.295 5.30014 23.8415 5.448 23.3173L8.58267 12.4453C8.703 12.0285 8.95562 11.662 9.30244 11.4013C9.64926 11.1406 10.0715 10.9998 10.5053 11H29C29.3066 10.9999 29.6091 11.0703 29.8841 11.2057C30.1592 11.3411 30.3994 11.5379 30.5862 11.781C30.7731 12.024 30.9016 12.3068 30.9618 12.6074C31.022 12.908 31.0122 13.2184 30.9333 13.5147" stroke="#666666" stroke-width="2" stroke-linecap="round" stroke-linejoin="round"/>
<path d="M15 23C15 25.1217 15.8429 27.1566 17.3431 28.6569C18.8434 30.1571 20.8783 31 23 31C25.1217 31 27.1566 30.1571 28.6569 28.6569C30.1571 27.1566 31 25.1217 31 23C31 20.8783 30.1571 18.8434 28.6569 17.3431C27.1566 15.8429 25.1217 15 23 15C20.8783 15 18.8434 15.8429 17.3431 17.3431C15.8429 18.8434 15 20.8783 15 23Z" stroke="#666666" stroke-width="2" stroke-linecap="round" stroke-linejoin="round"/>
<path d="M26.536 22.9999H23V19.4639" stroke="#666666" stroke-width="2" stroke-linecap="round" stroke-linejoin="round"/>
</g>
<defs>
<clipPath id="clip0_284_2224">
<rect width="32" height="32" fill="white"/>
</clipPath>
</defs>
</svg>
