<svg width="32" height="32" viewBox="0 0 32 32" fill="none" xmlns="http://www.w3.org/2000/svg">
<path d="M25.5222 6.6667C27.8799 9.0717 29.3337 12.3661 29.3337 16C29.3337 19.6771 27.8451 23.0065 25.4379 25.4187M6.66699 25.522C4.19851 23.102 2.66699 19.7299 2.66699 16C2.66699 12.3133 4.16329 8.9761 6.5817 6.5625" stroke="#666666" stroke-width="2" stroke-linecap="round" stroke-linejoin="round"/>
<path d="M21.7132 10.7256C23.1277 12.0787 24 13.9321 24 15.9766C24 18.0454 23.1069 19.9185 21.6625 21.2755M10.4 21.3337C8.91891 19.9722 8 18.075 8 15.9766C8 13.9025 8.89777 12.0249 10.3488 10.667" stroke="#666666" stroke-width="2" stroke-linecap="round" stroke-linejoin="round"/>
<path d="M18.2081 13.9348C19.4025 14.8117 19.9997 15.2501 19.9997 16C19.9997 16.7499 19.4025 17.1883 18.2081 18.0652C17.8785 18.3072 17.5514 18.5352 17.2509 18.7251C16.9873 18.8917 16.6887 19.064 16.3795 19.2332C15.1881 19.8853 14.5922 20.2115 14.0579 19.8504C13.5235 19.4893 13.475 18.7336 13.3779 17.2221C13.3505 16.7947 13.333 16.3756 13.333 16C13.333 15.6244 13.3505 15.2053 13.3779 14.7779C13.475 13.2664 13.5235 12.5106 14.0579 12.1496C14.5922 11.7886 15.1881 12.1147 16.3795 12.7668C16.6887 12.936 16.9873 13.1083 17.2509 13.2749C17.5514 13.4648 17.8785 13.6928 18.2081 13.9348Z" stroke="#666666" stroke-width="2"/>
</svg>
